# xmcd
#
# Track frame offsets:
#	150
#	1479
#	16782
#	41844
#	60711
#	85601
#	112492
#	136579
#	153569
#
# Disc length: 2237 seconds
#
# Revision: 0
# Processed by: cddbd v1.5.1PL2 Copyright (c) Steve Scherf et al.
# Submitted via: audiograbber 1.83.01
#
DISCID=6c08bb09
DTITLE=Diane Kallay - Paisley Blues
DYEAR=2006
DGENRE=R&B
TTITLE0=Intro
TTITLE1=I'm a Good Woman
TTITLE2=I Just Wanna Make Love
TTITLE3=Love to Burn
TTITLE4=If You Will
TTITLE5=Feel So Bad
TTITLE6=You've Got Me Hummin
TTITLE7=Just as Long as We Have Each Other
TTITLE8=Paisley Blues
EXTD=
EXTT0=
EXTT1=
EXTT2=
EXTT3=
EXTT4=
EXTT5=
EXTT6=
EXTT7=
EXTT8=
PLAYORDER=
